<svg height="512pt" viewBox="0 0 512 512" width="512pt" xmlns="http://www.w3.org/2000/svg"><path d="m421 409.5c-8.285156 0-15 6.714844-15 15l-15 17.5 15 17.5c0 8.28125 6.714844 15 15 15 8.28125 0 15-6.71875 15-15v-35c0-8.285156-6.71875-15-15-15zm0 0" fill="#5cae96"/><path d="m391 409.5c-8.285156 0-15 6.714844-15 15l-15 17.5 15 17.5c0 8.28125 6.714844 15 15 15 8.28125 0 15-6.71875 15-15v-35c0-8.285156-6.71875-15-15-15zm0 0" fill="#a3e9d9"/><path d="m361 409.5c-8.285156 0-15 6.714844-15 15l-15 17.5 15 17.5c0 8.28125 6.714844 15 15 15 8.28125 0 15-6.71875 15-15v-35c0-8.285156-6.71875-15-15-15zm0 0" fill="#5cae96"/><path d="m331 409.5c-8.285156 0-15 6.714844-15 15v35c0 8.28125 6.714844 15 15 15 8.28125 0 15-6.71875 15-15v-35c0-8.285156-6.71875-15-15-15zm0 0" fill="#a3e9d9"/><path d="m262.496094 349.5h227.003906v30h-227.003906zm0 0" fill="#f69b65"/><path d="m262.496094 52.5h227.003906v30h-227.003906zm0 0" fill="#f69b65"/><path d="m217.5 142.5c0-5.707031-1.601562-11.035156-4.367188-15.574219l-32.179687-52.808593-25.625 7.179687 20.171875 115.203125 12 6c16.566406 0 30-13.433594 30-30 0-5.464844-1.46875-10.585938-4.023438-15 2.550782-4.414062 4.023438-9.535156 4.023438-15zm0 0" fill="#762916"/><path d="m187.5 172.5c0-5.464844-1.472656-10.585938-4.023438-15 2.550782-4.414062 4.023438-9.535156 4.023438-15 0-5.707031-1.601562-11.035156-4.367188-15.574219l-27.804687-45.628906-57.828125 16.203125v45c0 16.5 13.5 30 30 30l48 24c7.285156-5.472656 12-14.1875 12-24zm0 0" fill="#893a31"/><path d="m247.496094 7.5h30v496.996094h-30zm0 0" fill="#f9b589"/><path d="m474.5 7.5h29.996094v496.996094h-29.996094zm0 0" fill="#f9b589"/><path d="m112.5 439.5v50l-30 10v-60zm0 0" fill="#ffebcf"/><path d="m202.5 439.5v60l-30-10v-50zm0 0" fill="#f9d4a0"/><path d="m142.5 261.59375 30 117.90625 15.003906-10.003906 14.996094 10.003906v-77.335938zm0 0" fill="#da521b"/><path d="m82.5 302.164062v77.335938c.011719 0 15.003906-10.003906 15.003906-10.003906l14.996094 10.003906 14.992188-10.003906 15.019531 10.003906 14.992187-10.003906 14.996094 10.003906v-117.90625zm0 0" fill="#f0651f"/><path d="m187.5 192.5c0-11.046875-8.957031-20-20-20h-30v105h50zm0 0" fill="#f9d4a0"/><path d="m157.5 192.5v85h-60v-85c0-11.050781 8.949219-20 20-20h20c11.050781 0 20 8.949219 20 20zm0 0" fill="#ffebcf"/><path d="m187.5 262.5h-30l15 39.664062h30c0-15.210937-5.671875-29.089843-15-39.664062zm0 0" fill="#f9b589"/><path d="m157.5 262.5h-60c-9.332031 10.574219-15 24.453125-15 39.664062h90c0-15.210937-5.671875-29.089843-15-39.664062zm0 0" fill="#f9d4a0"/><path d="m176.753906 68.335938c.007813-.011719-34.253906-.007813-34.253906-.007813v74.171875c24.847656 0 45-20.152344 45-45 0-11.121094-4.046875-21.316406-10.746094-29.164062zm0 0" fill="#f38042"/><path d="m156.386719 80.507812-48.144531-12.171874c-6.699219 7.847656-10.742188 18.042968-10.742188 29.164062 0 24.847656 20.148438 45 45 45 8.277344 0 15-20.152344 15-45 0-6.011719-.390625-11.75-1.113281-16.992188zm0 0" fill="#f69b65"/><path d="m142.5 52.5 13.886719 28.007812c7.453125-2.226562 14.476562-6.292968 20.367187-12.171874-8.25-9.691407-20.535156-15.835938-34.253906-15.835938zm0 0" fill="#762916"/><path d="m142.5 52.5c-13.722656 0-26.007812 6.144531-34.257812 15.835938 13.042968 13.039062 31.644531 17.105468 48.144531 12.171874-2.226563-16.429687-7.609375-28.007812-13.886719-28.007812zm0 0" fill="#893a31"/><path d="m219.871094 497.382812-9.871094-3.289062v-54.59375c0-4.144531-3.359375-7.5-7.5-7.5h-22.5v-48.488281l7.503906-5.003907 10.832032 7.230469c1.253906.835938 2.707031 1.261719 4.164062 1.261719 1.210938 0 2.429688-.292969 3.535156-.886719 2.441406-1.304687 3.964844-3.847656 3.964844-6.613281v-77.335938c0-15.46875-5.308594-30.417968-15-42.40625v-50.511718c17.09375-3.484375 30-18.636719 30-36.746094 0-5.171875-1.078125-10.285156-3.136719-15 2.058594-4.710938 3.136719-9.824219 3.136719-15 0-6.878906-1.890625-13.613281-5.460938-19.472656l-32.183593-52.8125c-.121094-.203125-.257813-.394532-.398438-.585938-9.296875-14.777344-25.746093-24.628906-44.457031-24.628906-28.949219 0-52.5 23.550781-52.5 52.5v45c0 10.789062 4.585938 20.519531 11.902344 27.367188-5.191406 3.589843-9.089844 8.917968-10.855469 15.132812h-68.546875c-4.136719 0-7.5-3.363281-7.5-7.5s3.363281-7.5 7.5-7.5h15c4.140625 0 7.5-3.359375 7.5-7.5 0-4.144531-3.359375-7.5-7.5-7.5h-15c-12.40625 0-22.5 10.09375-22.5 22.5s10.09375 22.5 22.5 22.5h67.5v59.757812c-9.695312 11.988282-15 26.933594-15 42.40625v77.335938c0 4.140625 3.355469 7.5 7.5 7.5 2.277344 0 2.277344 0 11.667969-6.265625l3.335937-2.226563 7.492188 5v48.492188h-22.496094c-4.144531 0-7.5 3.355469-7.5 7.5v54.59375l-9.875 3.289062c-3.929688 1.308594-6.050781 5.558594-4.742188 9.488282 1.046876 3.140625 3.972657 5.128906 7.113282 5.128906.785156 0 1.585937-.125 2.375-.386719l14.851562-4.953125c.019532-.003906 30.148438-10.046875 30.148438-10.046875 3.0625-1.019531 5.125-3.886719 5.125-7.113281v-105.988281l7.5-5.003907 10.855468 7.234376c2.519532 1.675781 5.800782 1.675781 8.320313-.003907l10.832031-7.230469 7.492188 5v105.992188c0 3.226562 2.066406 6.09375 5.128906 7.113281l30.125 10.042969c.023438.003906 14.875 4.957031 14.875 4.957031.789062.261719 1.585938.386719 2.375.386719 3.136719 0 6.0625-1.988281 7.113281-5.128906 1.308594-3.929688-.8125-8.179688-4.742187-9.488282zm-118.832032-227.382812h82.921876c5.589843 7.199219 9.199218 15.695312 10.492187 24.664062h-103.910156c1.296875-8.96875 4.902343-17.464843 10.496093-24.664062zm8.640626-190.617188c9.75 7.074219 21.28125 10.617188 32.820312 10.617188 11.535156 0 23.066406-3.542969 32.816406-10.617188 2.980469 5.375 4.683594 11.550782 4.683594 18.117188 0 20.675781-16.824219 37.5-37.5 37.5-20.679688 0-37.5-16.824219-37.5-37.5 0-6.566406 1.699219-12.742188 4.679688-18.117188zm55.839843-11.453124c-13.835937 9.421874-32.203125 9.421874-46.042969 0 6.359376-4.960938 14.347657-7.929688 23.023438-7.929688 8.671875 0 16.660156 2.96875 23.019531 7.929688zm-23.019531 82.070312c24.875 0 45.75-17.398438 51.136719-40.660156l13.09375 21.488281c2.136719 3.511719 3.269531 7.546875 3.269531 11.671875 0 3.945312-1.042969 7.835938-3.015625 11.242188-1.347656 2.324218-1.34375 5.191406 0 7.515624 1.972656 3.40625 3.015625 7.292969 3.015625 11.242188 0 9.777344-6.273438 18.113281-15 21.210938v-1.210938c0-15.164062-12.335938-27.5-27.5-27.5h-40c-12.410156 0-22.5-10.09375-22.5-22.5v-8.308594c9.535156 9.746094 22.820312 15.808594 37.5 15.808594zm25 30c6.890625 0 12.5 5.605469 12.5 12.5v62.5h-75v-62.492188c0-6.902343 5.609375-12.507812 12.5-12.507812zm-77.5 309.09375v-42.09375h15v37.09375zm63.34375-125.839844-10.835938 7.230469-10.855468-7.234375c-1.261719-.835938-2.707032-1.257812-4.160156-1.257812-1.449219 0-2.902344.421874-4.160157 1.261718l-10.832031 7.230469-10.832031-7.230469c-2.519531-1.679687-5.804688-1.679687-8.324219 0-1.039062.695313-2.175781 1.453125-3.34375 2.230469v-55.820313h105v55.8125l-3.332031-2.222656c-2.519531-1.679687-5.800781-1.679687-8.324219 0l-10.84375 7.226563-10.832031-7.226563c-2.519531-1.679687-5.804688-1.679687-8.324219 0zm26.65625 83.746094h15v42.09375l-15-5zm0 0"/><path d="m504.496094 0h-29.996094c-4.144531 0-7.5 3.355469-7.5 7.5v37.5h-182.003906v-37.5c0-4.144531-3.355469-7.5-7.5-7.5h-30c-4.140625 0-7.496094 3.355469-7.496094 7.5v496.996094c0 4.144531 3.355469 7.5 7.496094 7.5h30c4.144531 0 7.5-3.355469 7.5-7.5v-117.496094h38.5v16.289062c-8.726563 3.09375-15 11.433594-15 21.210938v35c0 12.402344 10.09375 22.5 22.5 22.5 5.757812 0 11.015625-2.179688 15-5.75 3.984375 3.570312 9.242187 5.75 15 5.75 5.757812 0 11.015625-2.179688 15-5.75 3.984375 3.570312 9.242187 5.75 15 5.75 5.757812 0 11.015625-2.179688 15-5.75 3.984375 3.570312 9.242187 5.75 15 5.75 12.410156 0 22.5-10.097656 22.5-22.5v-35c0-9.777344-6.269532-18.117188-15-21.210938v-16.289062h38.5v117.496094c0 4.144531 3.359375 7.5 7.5 7.5h30c4.144531 0 7.5-3.355469 7.5-7.5v-496.996094c0-4.144531-3.355469-7.5-7.5-7.5zm-121 403.289062c-2.792969.992188-5.332032 2.515626-7.5 4.457032-2.164063-1.941406-4.703125-3.464844-7.5-4.457032v-16.289062h15zm-15-31.289062v-15h15v15zm98.503906-148.5h-38.5v-133.5h38.5zm-53.503906 0h-15v-133.5h15zm-45 0v-133.5h15v133.5zm15 15v103.5h-15v-103.5zm15-163.5v-15h15v15zm-15 0h-15v-15h15zm-30 0h-15v-15h15zm0 15v133.5h-15v-133.5zm-30 133.5h-38.5v-133.5h38.5zm-38.5 15h38.5v103.5h-38.5zm53.5 0h15v103.5h-15zm15 118.5v15h-15v-15zm45 0h15v15h-15zm0-15v-103.5h15v103.5zm30-103.5h38.5v103.5h-38.5zm38.503906-163.5h-38.5v-15h38.5zm-143.503906-15v15h-38.5v-15zm-53.5 437h-15v-482h15zm15-125v-15h38.5v15zm68.5 15v16.289062c-2.792969.992188-5.332032 2.515626-7.5 4.457032-2.164063-1.941406-4.703125-3.464844-7.5-4.457032v-16.289062zm-22.5 80c-4.132813 0-7.5-3.367188-7.5-7.5v-35c0-4.136719 3.367187-7.5 7.5-7.5 4.136718 0 7.5 3.363281 7.5 7.5v35c0 4.132812-3.363282 7.5-7.5 7.5zm30 0c-4.132813 0-7.5-3.367188-7.5-7.5v-35c0-4.136719 3.367187-7.5 7.5-7.5 4.136718 0 7.5 3.363281 7.5 7.5v35c0 4.132812-3.363282 7.5-7.5 7.5zm30 0c-4.132813 0-7.5-3.367188-7.5-7.5v-35c0-4.136719 3.367187-7.5 7.5-7.5 4.136718 0 7.5 3.363281 7.5 7.5v35c0 4.132812-3.363282 7.5-7.5 7.5zm37.5-7.5c0 4.132812-3.363282 7.5-7.5 7.5-4.132813 0-7.5-3.367188-7.5-7.5v-35c0-4.136719 3.367187-7.5 7.5-7.5 4.136718 0 7.5 3.363281 7.5 7.5zm-15-56.210938c-2.792969.992188-5.332032 2.515626-7.5 4.457032-2.164063-1.941406-4.703125-3.464844-7.5-4.457032v-16.289062h15zm15-31.289062v-15h38.5v15zm68.503906 125h-15v-482h15zm0 0"/><path d="m37.5 140c4.140625 0 7.5-3.359375 7.5-7.5v-30c0-4.144531-3.359375-7.5-7.5-7.5s-7.5 3.355469-7.5 7.5v30c0 4.140625 3.359375 7.5 7.5 7.5zm0 0"/></svg>